<?xml version="1.0" encoding="UTF-8" standalone="no"?>
<!DOCTYPE svg PUBLIC "-//W3C//DTD SVG 1.1//EN" "http://www.w3.org/Graphics/SVG/1.1/DTD/svg11.dtd">
<svg width="100%" height="100%" viewBox="0 0 3526 696" version="1.1" xmlns="http://www.w3.org/2000/svg" xmlns:xlink="http://www.w3.org/1999/xlink" xml:space="preserve" xmlns:serif="http://www.serif.com/" style="fill-rule:evenodd;clip-rule:evenodd;stroke-linejoin:round;stroke-miterlimit:2;">
    <g>
        <g>
            <g>
                <g>
                    <g>
                        <g>
                            <path d="M158.538,275.709c36.259,80.344 6.365,176.792 -71.58,221.793c-7.055,4.073 -14.278,7.595 -21.619,10.578c-12.252,4.963 -26.249,-0.482 -31.927,-12.42c-21.322,-44.941 -33.216,-95.193 -33.216,-148.2c0,-61.148 15.828,-118.629 43.606,-168.565c34.51,-62.038 87.465,-112.432 151.431,-143.748c-64.803,48.522 -87.581,136.254 -54.162,210.307c3.37,4.688 6.539,9.588 9.486,14.693c2.948,5.106 5.607,10.299 7.981,15.562Z" style="fill:url(#_Linear1);"/>
                            <path d="M169.334,251.58c84.461,-25.222 137.765,-110.98 120.721,-199.355c-1.542,-7.999 -3.612,-15.763 -6.166,-23.265c-4.274,-12.508 -17.556,-19.519 -30.295,-15.991c-47.926,13.321 -93.69,37.246 -133.746,71.963c-46.208,40.049 -79.278,89.656 -98.821,143.353c-24.278,66.71 -27.676,139.732 -9.446,208.58c-5.776,-80.749 45.603,-155.422 123.45,-178.669c5.75,-0.524 11.527,-1.339 17.316,-2.455c5.788,-1.116 11.454,-2.509 16.987,-4.161Z" style="fill:url(#_Linear2);"/>
                        </g>
                        <g>
                            <path d="M504.432,219.509c-87.71,-8.772 -156.289,-82.884 -156.289,-172.887c-0,-8.147 0.562,-16.163 1.649,-24.012c1.828,-13.091 13.542,-22.49 26.719,-21.439c49.582,4.005 99.048,18.83 144.954,45.334c52.955,30.574 94.821,73.021 124.178,122.046c36.472,60.905 53.637,131.963 48.774,203.017c-9.62,-80.382 -74.21,-143.974 -155.051,-152.059c-5.745,0.574 -11.572,0.869 -17.467,0.869c-5.895,-0 -11.722,-0.295 -17.467,-0.869Z" style="fill:url(#_Linear3);"/>
                            <path d="M519.611,241.262c-20.388,85.757 27.229,174.799 112.286,204.226c7.698,2.663 15.457,4.753 23.23,6.292c12.97,2.553 25.683,-5.444 28.998,-18.241c12.425,-48.166 14.588,-99.76 4.55,-151.809c-11.579,-60.041 -38.005,-113.485 -74.737,-157.257c-45.634,-54.381 -107.173,-93.835 -175.912,-112.471c72.818,35.372 111.798,117.204 93.007,196.246c-2.421,5.241 -4.605,10.652 -6.532,16.223c-1.928,5.571 -3.555,11.174 -4.89,16.791Z" style="fill:url(#_Linear4);"/>
                        </g>
                        <g>
                            <path d="M380.156,547.161c51.451,-71.573 149.924,-93.908 227.869,-48.906c7.055,4.073 13.716,8.567 19.97,13.433c10.423,8.13 12.706,22.974 5.207,33.86c-28.259,40.936 -65.831,76.362 -111.737,102.866c-52.956,30.574 -110.649,45.607 -167.784,46.519c-70.982,1.132 -141.102,-19.531 -200.206,-59.269c74.423,31.859 161.791,7.719 209.213,-58.249c2.375,-5.262 5.034,-10.456 7.981,-15.561c2.948,-5.106 6.116,-10.005 9.487,-14.693Z" style="fill:url(#_Linear5);"/>
                            <path d="M353.408,549.77c-64.074,-60.534 -164.995,-63.818 -233.008,-4.87c-6.156,5.335 -11.845,11.01 -17.065,16.972c-8.695,9.956 -8.126,24.964 1.299,34.233c35.5,34.844 79.101,62.514 129.195,79.845c57.788,19.993 117.284,23.829 173.558,13.905c69.911,-12.33 134.85,-45.898 185.359,-96.109c-67.043,45.376 -157.401,38.217 -216.458,-17.577c-3.328,-4.717 -6.922,-9.313 -10.783,-13.768c-3.862,-4.455 -7.9,-8.666 -12.097,-12.631Z" style="fill:url(#_Linear6);"/>
                        </g>
                    </g>
                </g>
            </g>
        </g>
        <g id="Light" transform="matrix(37.2478,0,0,37.2478,-39209.4,-38249.3)">
            <g transform="matrix(12,0,0,12,1071.63,1040.93)">
                <path d="M0.666,-0.776l0,0.492l-0.406,-0.512l-0.185,0.05l0,0.746l0.185,-0l-0,-0.512l0.406,0.512l0.185,-0l-0,-0.776l-0.185,0Z" style="fill:#e2e2e2;fill-rule:nonzero;"/>
            </g>
            <g transform="matrix(17.4507,0,0,17.4507,1082.14,1040.93)">
                <path d="M0.166,-0.419c0.015,0 0.029,0.002 0.043,0.006c0.014,0.003 0.027,0.008 0.038,0.015c0.011,0.007 0.021,0.016 0.028,0.027c0.007,0.011 0.012,0.025 0.014,0.04c-0.011,-0.007 -0.024,-0.011 -0.039,-0.011c-0.01,-0 -0.02,0.002 -0.03,0.005c-0.009,0.004 -0.018,0.009 -0.026,0.016c-0.008,0.007 -0.015,0.016 -0.02,0.027c-0.005,0.011 -0.007,0.024 -0.007,0.038c-0,0.024 0.004,0.045 0.011,0.063c0.008,0.018 0.018,0.033 0.03,0.044c0.013,0.012 0.027,0.021 0.043,0.027c0.017,0.006 0.034,0.009 0.052,0.009c0.017,-0 0.035,-0.003 0.052,-0.009c0.017,-0.005 0.033,-0.014 0.046,-0.026c0.014,-0.011 0.025,-0.026 0.033,-0.044c0.009,-0.018 0.013,-0.04 0.013,-0.065c-0,-0.023 -0.004,-0.043 -0.011,-0.062c-0.007,-0.019 -0.016,-0.035 -0.029,-0.048c-0.012,-0.013 -0.026,-0.023 -0.043,-0.03c-0.017,-0.007 -0.035,-0.01 -0.054,-0.01c-0.012,-0 -0.023,0.001 -0.033,0.004c-0.012,-0.015 -0.027,-0.026 -0.046,-0.034c-0.018,-0.007 -0.037,-0.011 -0.058,-0.011c-0.013,-0 -0.027,0.001 -0.04,0.004c-0.013,0.003 -0.026,0.009 -0.037,0.016c0.027,-0.033 0.059,-0.058 0.094,-0.076c0.036,-0.017 0.075,-0.026 0.117,-0.026c0.04,-0 0.077,0.008 0.11,0.023c0.033,0.015 0.062,0.036 0.086,0.062c0.024,0.026 0.043,0.056 0.056,0.089c0.013,0.033 0.02,0.068 0.02,0.104c-0,0.037 -0.007,0.072 -0.022,0.104c-0.015,0.032 -0.034,0.06 -0.059,0.083c-0.024,0.023 -0.052,0.042 -0.085,0.055c-0.033,0.013 -0.067,0.02 -0.103,0.02c-0.039,-0 -0.075,-0.008 -0.109,-0.023c-0.033,-0.015 -0.062,-0.035 -0.087,-0.06c-0.025,-0.025 -0.044,-0.054 -0.058,-0.087c-0.014,-0.033 -0.021,-0.068 -0.021,-0.105c-0,-0.019 0.002,-0.038 0.006,-0.057c0.005,-0.018 0.012,-0.034 0.022,-0.049c0.011,-0.015 0.024,-0.026 0.041,-0.035c0.017,-0.009 0.037,-0.013 0.062,-0.013Z" style="fill:#e2e2e2;fill-rule:nonzero;"/>
            </g>
            <g transform="matrix(12,0,0,12,1091.98,1040.93)">
                <path d="M0.46,-0.486l-0.245,-0.29l-0.215,0l0.326,0.383l-0.336,0.393l0.215,-0l0.255,-0.301l0.255,0.301l0.215,-0l-0.336,-0.393l0.326,-0.383l-0.215,0l-0.245,0.29Z" style="fill:#e2e2e2;fill-rule:nonzero;"/>
            </g>
            <g transform="matrix(12,0,0,12,1103.38,1040.93)">
                <rect x="0.075" y="-0.776" width="0.185" height="0.776" style="fill:#e2e2e2;fill-rule:nonzero;"/>
            </g>
            <g transform="matrix(12,0,0,12,1107.76,1040.93)">
                <path d="M0.856,-0.776l-0.296,0.529l-0.3,-0.549l-0.185,0.05l0,0.746l0.185,-0l-0,-0.429l0.236,0.404l0.124,-0l0.236,-0.421l0,0.446l0.185,-0l-0,-0.776l-0.185,0Z" style="fill:#e2e2e2;fill-rule:nonzero;"/>
            </g>
            <g transform="matrix(12,0,0,12,1121.51,1040.93)">
                <rect x="0.075" y="-0.776" width="0.185" height="0.776" style="fill:#e2e2e2;fill-rule:nonzero;"/>
            </g>
            <g transform="matrix(12,0,0,12,1125.89,1040.93)">
                <path d="M0.013,-0.611l0.286,-0l0,0.611l0.185,-0l-0,-0.611l0.29,-0l0.05,-0.165l-0.811,0l0,0.165Z" style="fill:#e2e2e2;fill-rule:nonzero;"/>
            </g>
            <g transform="matrix(12,0,0,12,1136.26,1040.93)">
                <path d="M0.542,-0.264l0.379,-0.512l-0.215,0l-0.255,0.364l-0.255,-0.364l-0.215,0l0.376,0.508l0,0.268l0.185,-0l-0,-0.264Z" style="fill:#e2e2e2;fill-rule:nonzero;"/>
            </g>
        </g>
    </g>
    <defs>
        <linearGradient id="_Linear1" x1="0" y1="0" x2="1" y2="0" gradientUnits="userSpaceOnUse" gradientTransform="matrix(146.089,-476.189,1172.37,359.67,43.5501,514.635)"><stop offset="0" style="stop-color:#862a3e;stop-opacity:0.75"/><stop offset="1" style="stop-color:#c43455;stop-opacity:0.35"/></linearGradient>
        <linearGradient id="_Linear2" x1="0" y1="0" x2="1" y2="0" gradientUnits="userSpaceOnUse" gradientTransform="matrix(269.095,-409.47,-1008.11,-662.511,0.196402,421.472)"><stop offset="0" style="stop-color:#bf1079;stop-opacity:0.85"/><stop offset="1" style="stop-color:#c43455;stop-opacity:1"/></linearGradient>
        <linearGradient id="_Linear3" x1="0" y1="0" x2="1" y2="0" gradientUnits="userSpaceOnUse" gradientTransform="matrix(338.447,367.857,-905.661,833.255,356.564,1.06055)"><stop offset="0" style="stop-color:#862a3e;stop-opacity:0.75"/><stop offset="1" style="stop-color:#c43455;stop-opacity:0.35"/></linearGradient>
        <linearGradient id="_Linear4" x1="0" y1="0" x2="1" y2="0" gradientUnits="userSpaceOnUse" gradientTransform="matrix(197.85,377.185,928.628,-487.104,458.865,12.0016)"><stop offset="0" style="stop-color:#bf1079;stop-opacity:0.85"/><stop offset="1" style="stop-color:#c43455;stop-opacity:1"/></linearGradient>
        <linearGradient id="_Linear5" x1="0" y1="0" x2="1" y2="0" gradientUnits="userSpaceOnUse" gradientTransform="matrix(-484.28,105.903,-260.732,-1192.29,637.755,531.961)"><stop offset="0" style="stop-color:#862a3e;stop-opacity:0.75"/><stop offset="1" style="stop-color:#c43455;stop-opacity:0.35"/></linearGradient>
        <linearGradient id="_Linear6" x1="0" y1="0" x2="1" y2="0" gradientUnits="userSpaceOnUse" gradientTransform="matrix(-495.031,-27.9269,-68.7559,1218.76,592.746,598.796)"><stop offset="0" style="stop-color:#bf1079;stop-opacity:0.85"/><stop offset="1" style="stop-color:#c43455;stop-opacity:1"/></linearGradient>
    </defs>
</svg>
