<?xml version="1.0" encoding="UTF-8" standalone="no"?>
<!DOCTYPE svg PUBLIC "-//W3C//DTD SVG 1.1//EN" "http://www.w3.org/Graphics/SVG/1.1/DTD/svg11.dtd">
<svg width="100%" height="100%" viewBox="0 0 796 796" version="1.1" xmlns="http://www.w3.org/2000/svg" xmlns:xlink="http://www.w3.org/1999/xlink" xml:space="preserve" xmlns:serif="http://www.serif.com/" style="fill-rule:evenodd;clip-rule:evenodd;stroke-linejoin:round;stroke-miterlimit:2;">
    <g transform="matrix(1,0,0,1,-102.067,-102.13)">
        <g id="Noximity" transform="matrix(1.98909,0,0,1.98909,-494.435,-494.656)">
            <g>
                <g>
                    <g>
                        <g transform="matrix(0.4,0,0,0.4,300,300)">
                            <path d="M227.822,396.765C279.99,512.364 236.98,651.133 124.833,715.881C113.199,722.598 101.248,728.272 89.087,732.932C73.916,738.684 56.861,731.928 49.745,717.346C17.847,651.637 -0,577.886 0,500C-0,412.02 22.772,329.318 62.739,257.47C112.392,168.209 188.584,95.703 280.618,50.645C187.38,120.458 154.607,246.688 202.69,353.235C207.539,359.98 212.098,367.029 216.339,374.375C220.58,381.721 224.405,389.193 227.822,396.765Z" style="fill:url(#_Linear1);"/>
                        </g>
                        <g transform="matrix(0.26198,0.302269,0.302269,-0.26198,217.727,479.9)">
                            <path d="M227.822,396.765C279.99,512.364 236.98,651.133 124.833,715.881C113.199,722.598 101.248,728.272 89.087,732.932C73.916,738.684 56.861,731.927 49.745,717.346C17.847,651.637 -0,577.886 0,500C-0,412.02 22.772,329.318 62.739,257.47C112.392,168.209 188.584,95.703 280.618,50.645C187.38,120.458 154.607,246.688 202.69,353.235C207.539,359.98 212.098,367.029 216.339,374.375C220.58,381.721 224.405,389.193 227.822,396.765Z" style="fill:url(#_Linear2);"/>
                        </g>
                    </g>
                    <g>
                        <g transform="matrix(-0.2,0.34641,-0.34641,-0.2,773.205,426.795)">
                            <path d="M227.822,396.765C279.99,512.364 236.98,651.133 124.833,715.881C113.199,722.598 101.248,728.272 89.087,732.932C73.916,738.684 56.861,731.927 49.745,717.346C17.847,651.637 -0,577.886 0,500C-0,412.02 22.772,329.318 62.739,257.47C112.392,168.209 188.584,95.703 280.618,50.645C187.38,120.458 154.607,246.688 202.69,353.235C207.539,359.98 212.098,367.029 216.339,374.375C220.58,381.721 224.405,389.193 227.822,396.765Z" style="fill:url(#_Linear3);"/>
                        </g>
                        <g transform="matrix(-0.392763,0.0757469,0.0757469,0.392763,658.359,265.79)">
                            <path d="M227.822,396.765C279.99,512.364 236.98,651.133 124.833,715.881C113.199,722.598 101.248,728.272 89.087,732.932C73.916,738.684 56.861,731.928 49.745,717.346C17.847,651.637 -0,577.886 0,500C-0,412.02 22.772,329.318 62.739,257.47C112.392,168.209 188.584,95.703 280.618,50.645C187.38,120.458 154.607,246.688 202.69,353.235C207.539,359.98 212.098,367.029 216.339,374.375C220.58,381.721 224.405,389.193 227.822,396.765Z" style="fill:url(#_Linear4);"/>
                        </g>
                    </g>
                    <g>
                        <g transform="matrix(-0.2,-0.34641,0.34641,-0.2,426.795,773.205)">
                            <path d="M227.822,396.765C279.99,512.364 236.98,651.133 124.833,715.881C113.199,722.598 101.248,728.272 89.087,732.932C73.916,738.684 56.861,731.928 49.745,717.346C17.847,651.637 -0,577.886 0,500C-0,412.02 22.772,329.318 62.739,257.47C112.392,168.209 188.584,95.703 280.618,50.645C187.38,120.458 154.607,246.688 202.69,353.235C207.539,359.98 212.098,367.029 216.339,374.375C220.58,381.721 224.405,389.193 227.822,396.765Z" style="fill:url(#_Linear5);"/>
                        </g>
                        <g transform="matrix(0.130783,-0.378016,-0.378016,-0.130783,623.468,754.444)">
                            <path d="M227.822,396.765C279.99,512.364 236.98,651.133 124.833,715.881C113.199,722.598 101.248,728.272 89.087,732.932C73.916,738.684 56.861,731.928 49.745,717.346C17.847,651.637 0,577.886 0,500C-0,412.02 22.772,329.318 62.739,257.47C112.392,168.209 188.584,95.703 280.618,50.645C187.38,120.458 154.607,246.688 202.69,353.235C207.539,359.98 212.098,367.029 216.339,374.375C220.58,381.721 224.405,389.193 227.822,396.765Z" style="fill:url(#_Linear6);"/>
                        </g>
                    </g>
                </g>
            </g>
        </g>
    </g>
    <defs>
        <linearGradient id="_Linear1" x1="0" y1="0" x2="1" y2="0" gradientUnits="userSpaceOnUse" gradientTransform="matrix(210.192,-685.14,1686.81,517.492,62.3773,740.532)"><stop offset="0" style="stop-color:rgb(134,42,62);stop-opacity:0.75"/><stop offset="1" style="stop-color:rgb(196,52,85);stop-opacity:0.35"/></linearGradient>
        <linearGradient id="_Linear2" x1="0" y1="0" x2="1" y2="0" gradientUnits="userSpaceOnUse" gradientTransform="matrix(-191.621,678.437,-1670.31,-471.769,253.154,52.773)"><stop offset="0" style="stop-color:rgb(191,16,121);stop-opacity:0.85"/><stop offset="1" style="stop-color:rgb(196,52,85);stop-opacity:1"/></linearGradient>
        <linearGradient id="_Linear3" x1="0" y1="0" x2="1" y2="0" gradientUnits="userSpaceOnUse" gradientTransform="matrix(214.884,-686.354,1689.8,529.044,62.0039,738.165)"><stop offset="0" style="stop-color:rgb(134,42,62);stop-opacity:0.75"/><stop offset="1" style="stop-color:rgb(196,52,85);stop-opacity:0.35"/></linearGradient>
        <linearGradient id="_Linear4" x1="0" y1="0" x2="1" y2="0" gradientUnits="userSpaceOnUse" gradientTransform="matrix(-176.747,586.781,-1444.65,-435.149,251.177,56.3227)"><stop offset="0" style="stop-color:rgb(191,16,121);stop-opacity:0.85"/><stop offset="1" style="stop-color:rgb(196,52,85);stop-opacity:1"/></linearGradient>
        <linearGradient id="_Linear5" x1="0" y1="0" x2="1" y2="0" gradientUnits="userSpaceOnUse" gradientTransform="matrix(216.432,-679.617,1673.21,532.853,61.445,728.678)"><stop offset="0" style="stop-color:rgb(134,42,62);stop-opacity:0.75"/><stop offset="1" style="stop-color:rgb(196,52,85);stop-opacity:0.35"/></linearGradient>
        <linearGradient id="_Linear6" x1="0" y1="0" x2="1" y2="0" gradientUnits="userSpaceOnUse" gradientTransform="matrix(-194.902,686.242,-1689.52,-479.847,273.751,48.2687)"><stop offset="0" style="stop-color:rgb(191,16,121);stop-opacity:0.85"/><stop offset="1" style="stop-color:rgb(196,52,85);stop-opacity:1"/></linearGradient>
    </defs>
</svg>
